{"asset":{"version":"2.0","generator":"Architectural-AI-Lab tiny glTF generator"},"scene":0,"scenes":[{"name":"DubaiLuxuryVillaV01","nodes":[0]}],"nodes":[{"name":"world","children":[1,2,3,4,5,6,7,8,9,10,11,12,13,14,15,16,17,18,19,20,21,22,23,24,25,26,27,28,29,30]},{"name":"site_base","mesh":0,"scale":[26,0.35,22],"translation":[0,-0.175,0]},{"name":"ground_slab","mesh":1,"scale":[20,0.35,14],"translation":[0,0.175,0]},{"name":"living_room","mesh":1,"scale":[10.5,3.2,7],"translation":[-3.5,1.95,1.5]},{"name":"kitchen","mesh":2,"scale":[5.2,3.2,5],"translation":[5.0,1.95,1.8]},{"name":"lobby","mesh":3,"scale":[3.2,3.2,4],"translation":[1.3,1.95,-3.6]},{"name":"pool_terrace","mesh":1,"scale":[15.5,0.25,4.5],"translation":[0,0.48,-7.25]},{"name":"pool_water","mesh":4,"scale":[9,0.15,3],"translation":[-1.5,0.62,-7.4]},{"name":"upper_slab","mesh":3,"scale":[17.5,0.35,9],"translation":[-0.5,3.75,0.6]},{"name":"master_bedroom","mesh":1,"scale":[8,3.0,6.2],"translation":[-3.5,5.45,1.2]},{"name":"private_office","mesh":2,"scale":[4.7,3.0,4.2],"translation":[4.1,5.45,1.7]},{"name":"sky_terrace","mesh":1,"scale":[7.5,0.25,3.2],"translation":[3.2,4.05,-3.9]},{"name":"roof_main","mesh":3,"scale":[17.8,0.28,9.3],"translation":[-0.5,7.05,0.6]},{"name":"glass_living","mesh":5,"scale":[0.15,2.5,6],"translation":[-8.82,2.0,1.5]},{"name":"glass_master","mesh":5,"scale":[0.15,2.4,5.1],"translation":[-7.52,5.5,1.2]},{"name":"glass_office","mesh":5,"scale":[0.15,2.4,3.5],"translation":[6.47,5.5,1.7]},{"name":"column_-7.5","mesh":6,"scale":[0.28,3.5,0.28],"translation":[-7.5,2.0,-4.7]},{"name":"column_-2.5","mesh":6,"scale":[0.28,3.5,0.28],"translation":[-2.5,2.0,-4.7]},{"name":"column_2.5","mesh":6,"scale":[0.28,3.5,0.28],"translation":[2.5,2.0,-4.7]},{"name":"column_7.0","mesh":6,"scale":[0.28,3.5,0.28],"translation":[7.0,2.0,-4.7]},{"name":"pergola_-6.5","mesh":2,"scale":[0.18,0.18,4.0],"translation":[-6.5,3.5,-5.0]},{"name":"pergola_-3.9","mesh":2,"scale":[0.18,0.18,4.0],"translation":[-3.9,3.5,-5.0]},{"name":"pergola_-1.3","mesh":2,"scale":[0.18,0.18,4.0],"translation":[-1.2999999999999998,3.5,-5.0]},{"name":"pergola_1.3","mesh":2,"scale":[0.18,0.18,4.0],"translation":[1.3000000000000007,3.5,-5.0]},{"name":"pergola_3.9","mesh":2,"scale":[0.18,0.18,4.0],"translation":[3.9000000000000004,3.5,-5.0]},{"name":"pergola_6.5","mesh":2,"scale":[0.18,0.18,4.0],"translation":[6.5,3.5,-5.0]},{"name":"step_0","mesh":1,"scale":[3.0,0.18,0.75],"translation":[6.5,0.15,-4.5]},{"name":"step_1","mesh":1,"scale":[3.0,0.18,0.75],"translation":[6.5,0.32999999999999996,-4.95]},{"name":"step_2","mesh":1,"scale":[3.0,0.18,0.75],"translation":[6.5,0.51,-5.4]},{"name":"step_3","mesh":1,"scale":[3.0,0.18,0.75],"translation":[6.5,0.6900000000000001,-5.85]},{"name":"step_4","mesh":1,"scale":[3.0,0.18,0.75],"translation":[6.5,0.87,-6.3]}],"meshes":[{"name":"LandscapeBox","primitives":[{"attributes":{"POSITION":0,"NORMAL":1},"indices":2,"material":0}]},{"name":"WarmStoneBox","primitives":[{"attributes":{"POSITION":0,"NORMAL":1},"indices":2,"material":1}]},{"name":"WarmWoodBox","primitives":[{"attributes":{"POSITION":0,"NORMAL":1},"indices":2,"material":2}]},{"name":"DarkStoneBox","primitives":[{"attributes":{"POSITION":0,"NORMAL":1},"indices":2,"material":3}]},{"name":"PoolWaterBox","primitives":[{"attributes":{"POSITION":0,"NORMAL":1},"indices":2,"material":4}]},{"name":"GlassTintBox","primitives":[{"attributes":{"POSITION":0,"NORMAL":1},"indices":2,"material":5}]},{"name":"MetalTrimBox","primitives":[{"attributes":{"POSITION":0,"NORMAL":1},"indices":2,"material":6}]}],"materials":[{"name":"Landscape","pbrMetallicRoughness":{"baseColorFactor":[0.37,0.47,0.31,1],"roughnessFactor":0.9}},{"name":"WarmStone","pbrMetallicRoughness":{"baseColorFactor":[0.82,0.8,0.75,1],"roughnessFactor":0.75}},{"name":"WarmWood","pbrMetallicRoughness":{"baseColorFactor":[0.57,0.38,0.24,1],"roughnessFactor":0.65}},{"name":"DarkStone","pbrMetallicRoughness":{"baseColorFactor":[0.2,0.22,0.24,1],"metallicFactor":0.05,"roughnessFactor":0.55}},{"name":"PoolWater","pbrMetallicRoughness":{"baseColorFactor":[0.19,0.59,0.75,0.82],"roughnessFactor":0.08},"alphaMode":"BLEND","doubleSided":true},{"name":"GlassTint","pbrMetallicRoughness":{"baseColorFactor":[0.43,0.69,0.8,0.45],"roughnessFactor":0.15},"alphaMode":"BLEND","doubleSided":true},{"name":"MetalTrim","pbrMetallicRoughness":{"baseColorFactor":[0.27,0.3,0.33,1],"metallicFactor":0.65,"roughnessFactor":0.3}}],"buffers":[{"byteLength":648,"uri":"data:application/octet-stream;base64,"}],"bufferViews":[{"buffer":0,"byteOffset":0,"byteLength":288,"target":34962},{"buffer":0,"byteOffset":288,"byteLength":288,"target":34962},{"buffer":0,"byteOffset":576,"byteLength":72,"target":34963}],"accessors":[{"bufferView":0,"byteOffset":0,"componentType":5126,"count":24,"type":"VEC3","min":[-0.5,-0.5,-0.5],"max":[0.5,0.5,0.5]},{"bufferView":1,"byteOffset":0,"componentType":5126,"count":24,"type":"VEC3"},{"bufferView":2,"byteOffset":0,"componentType":5123,"count":36,"type":"SCALAR","min":[0],"max":[23]}]}